<svg width="25" height="25" viewBox="0 0 25 25" fill="none" xmlns="http://www.w3.org/2000/svg">
<path d="M22.3951 4.1665H20.1381V5.55539H22.2215V20.8332H2.77701V5.55539H4.86034V4.1665H2.6034C2.44106 4.16922 2.28085 4.20388 2.13191 4.26852C1.98298 4.33316 1.84824 4.42651 1.73538 4.54323C1.62253 4.65996 1.53378 4.79777 1.47419 4.9488C1.41461 5.09983 1.38536 5.26111 1.38812 5.42345V20.9651C1.38536 21.1274 1.41461 21.2887 1.47419 21.4398C1.53378 21.5908 1.62253 21.7286 1.73538 21.8453C1.84824 21.9621 1.98298 22.0554 2.13191 22.12C2.28085 22.1847 2.44106 22.2193 2.6034 22.2221H22.3951C22.5574 22.2193 22.7176 22.1847 22.8665 22.12C23.0155 22.0554 23.1502 21.9621 23.2631 21.8453C23.3759 21.7286 23.4647 21.5908 23.5243 21.4398C23.5838 21.2887 23.6131 21.1274 23.6103 20.9651V5.42345C23.6131 5.26111 23.5838 5.09983 23.5243 4.9488C23.4647 4.79777 23.3759 4.65996 23.2631 4.54323C23.1502 4.42651 23.0155 4.33316 22.8665 4.26852C22.7176 4.20388 22.5574 4.16922 22.3951 4.1665Z" fill="#020905"/>
<path d="M5.55566 9.72229H6.94455V11.1112H5.55566V9.72229Z" fill="#020905"/>
<path d="M9.72217 9.72229H11.1111V11.1112H9.72217V9.72229Z" fill="#020905"/>
<path d="M13.8892 9.72229H15.278V11.1112H13.8892V9.72229Z" fill="#020905"/>
<path d="M18.0557 9.72229H19.4446V11.1112H18.0557V9.72229Z" fill="#020905"/>
<path d="M5.55566 13.1945H6.94455V14.5833H5.55566V13.1945Z" fill="#020905"/>
<path d="M9.72217 13.1945H11.1111V14.5833H9.72217V13.1945Z" fill="#020905"/>
<path d="M13.8892 13.1945H15.278V14.5833H13.8892V13.1945Z" fill="#020905"/>
<path d="M18.0557 13.1945H19.4446V14.5833H18.0557V13.1945Z" fill="#020905"/>
<path d="M5.55566 16.6665H6.94455V18.0554H5.55566V16.6665Z" fill="#020905"/>
<path d="M9.72217 16.6665H11.1111V18.0554H9.72217V16.6665Z" fill="#020905"/>
<path d="M13.8892 16.6665H15.278V18.0554H13.8892V16.6665Z" fill="#020905"/>
<path d="M18.0557 16.6665H19.4446V18.0554H18.0557V16.6665Z" fill="#020905"/>
<path d="M6.94444 6.94447C7.12862 6.94447 7.30526 6.87131 7.43549 6.74107C7.56572 6.61084 7.63889 6.43421 7.63889 6.25003V2.08336C7.63889 1.89918 7.56572 1.72255 7.43549 1.59231C7.30526 1.46208 7.12862 1.38892 6.94444 1.38892C6.76027 1.38892 6.58363 1.46208 6.4534 1.59231C6.32316 1.72255 6.25 1.89918 6.25 2.08336V6.25003C6.25 6.43421 6.32316 6.61084 6.4534 6.74107C6.58363 6.87131 6.76027 6.94447 6.94444 6.94447Z" fill="#020905"/>
<path d="M18.0553 6.94447C18.2395 6.94447 18.4161 6.87131 18.5463 6.74107C18.6766 6.61084 18.7497 6.43421 18.7497 6.25003V2.08336C18.7497 1.89918 18.6766 1.72255 18.5463 1.59231C18.4161 1.46208 18.2395 1.38892 18.0553 1.38892C17.8711 1.38892 17.6945 1.46208 17.5642 1.59231C17.434 1.72255 17.3608 1.89918 17.3608 2.08336V6.25003C17.3608 6.43421 17.434 6.61084 17.5642 6.74107C17.6945 6.87131 17.8711 6.94447 18.0553 6.94447Z" fill="#020905"/>
<path d="M9.02783 4.1665H15.9723V5.55539H9.02783V4.1665Z" fill="#020905"/>
</svg>
