<svg width="40" height="40" viewBox="0 0 40 40" fill="none" xmlns="http://www.w3.org/2000/svg">
<path d="M1.79688 9.29688V30.7031H38.2031V9.29688H1.79688ZM3.20312 10.7031H19.2969V16.8763C17.8711 17.1993 16.7969 18.4807 16.7969 20C16.7969 21.5193 17.8711 22.8008 19.2969 23.1238V29.2969H3.20312V24.4531H8.20312V15.5469H3.20312V10.7031ZM20.7031 10.7031H36.7969V15.5469H31.7969V24.4531H36.7969V29.2969H20.7031V23.1238C22.1289 22.8007 23.2031 21.5193 23.2031 20C23.2031 18.4807 22.1289 17.1992 20.7031 16.8763V10.7031ZM3.20312 16.9531H6.79688V23.0469H3.20312V16.9531ZM33.2031 16.9531H36.7969V23.0469H33.2031V16.9531ZM19.2969 18.3432V21.6568C18.6508 21.3859 18.2031 20.7505 18.2031 20C18.2031 19.2495 18.6508 18.6141 19.2969 18.3432ZM20.7031 18.3432C21.3492 18.6141 21.7969 19.2495 21.7969 20C21.7969 20.7505 21.3492 21.3859 20.7031 21.6568V18.3432Z" fill="white"/>
</svg>
