<svg width="25" height="25" viewBox="0 0 25 25" fill="none" xmlns="http://www.w3.org/2000/svg">
<path d="M25 8.33333V0H17.8571V3.125H14.2857C13.8123 3.12563 13.3584 3.34533 13.0236 3.73589C12.6889 4.12646 12.5005 4.65599 12.5 5.20833V11.4583H7.14286V8.33333H0V16.6667H7.14286V13.5417H12.5V19.7917C12.5005 20.344 12.6889 20.8735 13.0236 21.2641C13.3584 21.6547 13.8123 21.8744 14.2857 21.875H17.8571V25H25V16.6667H17.8571V19.7917H14.2857V5.20833H17.8571V8.33333H25ZM5.35714 14.5833H1.78571V10.4167H5.35714V14.5833ZM19.6429 18.75H23.2143V22.9167H19.6429V18.75ZM19.6429 2.08333H23.2143V6.25H19.6429V2.08333Z" fill="white"/>
</svg>
