<svg width="26" height="13" viewBox="0 0 26 13" fill="none" xmlns="http://www.w3.org/2000/svg">
<path d="M0 1.3C0 0.582036 0.582036 0 1.3 0H24.7C25.418 0 26 0.582036 26 1.3C26 2.01796 25.418 2.6 24.7 2.6H1.3C0.582036 2.6 0 2.01796 0 1.3Z" fill="white"/>
<path d="M0 6.49995C0 5.78196 0.582036 5.19995 1.3 5.19995H24.7C25.418 5.19995 26 5.78196 26 6.49995C26 7.21794 25.418 7.79995 24.7 7.79995H1.3C0.582036 7.79995 0 7.21794 0 6.49995Z" fill="white"/>
<path d="M1.3 10.4C0.582036 10.4 0 10.982 0 11.7C0 12.418 0.582036 13 1.3 13H16.9C17.618 13 18.2 12.418 18.2 11.7C18.2 10.982 17.618 10.4 16.9 10.4H1.3Z" fill="white"/>
</svg>
