<svg width="1364" height="231" viewBox="0 0 1364 231" fill="none" xmlns="http://www.w3.org/2000/svg">
<path fill-rule="evenodd" clip-rule="evenodd" d="M1364 205.596L1328.48 188.546C1292.96 171.496 1221.92 137.396 1150.88 137.396C1079.83 137.396 1008.79 171.496 937.75 150.183C866.708 128.871 795.667 52.1459 724.625 56.4084C653.583 60.6709 582.542 145.921 547.021 188.546L511.5 231.171H547.021C582.542 231.171 653.583 231.171 724.625 231.171C795.667 231.171 866.708 231.171 937.75 231.171C1008.79 231.171 1079.83 231.171 1150.88 231.171C1221.92 231.171 1292.96 231.171 1328.48 231.171H1364V205.596Z" fill="#020905" fill-opacity="0.6"/>
<path fill-rule="evenodd" clip-rule="evenodd" d="M0 0.824951L35.5208 22.1375C71.0417 43.45 142.083 86.075 213.125 120.175C284.167 154.275 355.208 179.85 426.25 171.325C497.292 162.8 568.333 120.175 639.375 124.437C710.417 128.7 781.458 179.85 816.979 205.425L852.5 231H816.979C781.458 231 710.417 231 639.375 231C568.333 231 497.292 231 426.25 231C355.208 231 284.167 231 213.125 231C142.083 231 71.0417 231 35.5208 231H0V0.824951Z" fill="#020905" fill-opacity="0.8"/>
<path fill-rule="evenodd" clip-rule="evenodd" d="M719.652 231L746.5 217.494C773.348 203.988 827.043 176.265 880.739 142.144C934.435 108.024 988.13 67.5059 1041.83 53.2891C1095.52 39.783 1149.22 53.2891 1202.91 67.5059C1256.61 81.012 1310.3 94.518 1337.15 101.626L1364 108.024V231H1337.15C1310.3 231 1256.61 231 1202.91 231C1149.22 231 1095.52 231 1041.83 231C988.13 231 934.435 231 880.739 231C827.043 231 773.348 231 746.5 231H719.652Z" fill="#020905" fill-opacity="0.4"/>
</svg>
