<svg width="1364" height="138" viewBox="0 0 1364 138" fill="none" xmlns="http://www.w3.org/2000/svg">
<path fill-rule="evenodd" clip-rule="evenodd" d="M852.5 0.000239904L829.056 4.26274C804.902 8.52524 758.015 17.0502 710.417 42.6252C662.819 68.2002 615.931 110.825 568.333 127.875C520.735 144.925 473.848 136.4 426.25 119.35C378.652 102.3 331.765 76.7252 284.167 72.4627C236.569 68.2002 189.681 85.2502 142.083 93.7752C94.4854 102.3 47.5979 102.3 23.4437 102.3L-9.53674e-06 102.3V0.000239904H23.4437C47.5979 0.000239904 94.4854 0.000239904 142.083 0.000239904C189.681 0.000239904 236.569 0.000239904 284.167 0.000239904C331.765 0.000239904 378.652 0.000239904 426.25 0.000239904C473.848 0.000239904 520.735 0.000239904 568.333 0.000239904C615.931 0.000239904 662.819 0.000239904 710.417 0.000239904C758.015 0.000239904 804.902 0.000239904 829.056 0.000239904H852.5Z" fill="#020905" fill-opacity="0.8"/>
<path fill-rule="evenodd" clip-rule="evenodd" d="M1364 74.9244L1292.96 87.336C1221.92 99.7476 1079.83 124.571 937.75 112.159C795.667 99.7476 653.583 50.1011 582.542 25.2778L511.5 0.454498V0.454498H582.542C653.583 0.454498 795.667 0.454498 937.75 0.454498C1079.83 0.454498 1221.92 0.454498 1292.96 0.454498L1364 0.454498V74.9244Z" fill="#020905" fill-opacity="0.6"/>
</svg>
