<svg width="732" height="115" viewBox="0 0 732 115" fill="none" xmlns="http://www.w3.org/2000/svg">
<path d="M210.653 12.2624C222.193 5.02314 236.857 5.02314 248.397 12.2624L410.269 113.81C432.457 127.729 432.457 160.057 410.269 173.975L248.397 275.523C236.857 282.762 222.193 282.762 210.653 275.523L48.7802 173.975C26.593 160.057 26.593 127.729 48.7802 113.81L210.653 12.2624Z" fill="white"/>
<path d="M689.77 11.6545C701.109 4.75553 715.348 4.75552 726.687 11.6544L894.167 113.555C916.905 127.389 916.905 160.396 894.167 174.231L726.687 276.131C715.348 283.03 701.109 283.03 689.77 276.131L522.29 174.231C499.552 160.396 499.552 127.389 522.29 113.555L689.77 11.6545Z" fill="white"/>
</svg>
