<svg width="753" height="145" viewBox="0 0 753 145" fill="none" xmlns="http://www.w3.org/2000/svg">
<path d="M660.395 -170.766C671.737 -177.667 685.98 -177.667 697.321 -170.766L864.842 -68.8412C887.586 -55.0033 887.586 -21.9884 864.842 -8.15045L697.322 93.7747C685.98 100.675 671.737 100.675 660.395 93.7747L492.875 -8.15045C470.131 -21.9884 470.131 -55.0032 492.875 -68.8412L660.395 -170.766Z" fill="#020905" fill-opacity="0.6"/>
<path d="M218.064 -131.521C229.406 -138.421 243.649 -138.421 254.99 -131.521L422.511 -29.5954C445.254 -15.7574 445.254 17.2574 422.511 31.0954L254.99 133.021C243.649 139.921 229.406 139.921 218.064 133.021L50.5434 31.0954C27.7998 17.2574 27.7998 -15.7574 50.5433 -29.5954L218.064 -131.521Z" fill="#020905" fill-opacity="0.8"/>
</svg>
