<svg width="30" height="30" viewBox="0 0 30 30" fill="none" xmlns="http://www.w3.org/2000/svg">
<path d="M15.9375 28.125C16.973 28.125 17.8125 27.2855 17.8125 26.25C17.8125 25.2145 16.973 24.375 15.9375 24.375C14.902 24.375 14.0625 25.2145 14.0625 26.25C14.0625 27.2855 14.902 28.125 15.9375 28.125Z" fill="white"/>
<path d="M7.5 19.2994L12.7368 14.0626L14.0625 15.3883L8.82569 20.6251L7.5 19.2994Z" fill="white"/>
<path d="M26.25 15.5475L18.2009 7.5H5.625V9.375H17.4241L20.2366 12.1875L5.625 26.7993L6.95072 28.125L21.5625 13.5141L24.9225 16.875L21.5625 20.2368L22.8882 21.5625L26.25 18.2025C26.6016 17.8502 26.7991 17.3728 26.7991 16.875C26.7991 16.3772 26.6016 15.8998 26.25 15.5475Z" fill="white"/>
<path d="M22.9688 8.4375C22.3198 8.4375 21.6854 8.24506 21.1458 7.88451C20.6062 7.52396 20.1856 7.0115 19.9373 6.41193C19.6889 5.81236 19.6239 5.15261 19.7505 4.51611C19.8772 3.87961 20.1897 3.29495 20.6486 2.83606C21.1074 2.37717 21.6921 2.06466 22.3286 1.93805C22.9651 1.81144 23.6249 1.87642 24.2244 2.12477C24.824 2.37312 25.3365 2.79369 25.697 3.33329C26.0576 3.87289 26.25 4.50728 26.25 5.15625C26.249 6.02619 25.903 6.86021 25.2878 7.47535C24.6727 8.09049 23.8387 8.43651 22.9688 8.4375ZM22.9688 3.75C22.6906 3.75 22.4187 3.83248 22.1875 3.987C21.9562 4.14152 21.776 4.36114 21.6695 4.6181C21.5631 4.87506 21.5353 5.15781 21.5895 5.4306C21.6438 5.70338 21.7777 5.95395 21.9744 6.15062C22.1711 6.34729 22.4216 6.48122 22.6944 6.53548C22.9672 6.58974 23.2499 6.56189 23.5069 6.45546C23.7639 6.34902 23.9835 6.16878 24.138 5.93752C24.2925 5.70627 24.375 5.43438 24.375 5.15625C24.3746 4.78342 24.2263 4.42598 23.9627 4.16235C23.699 3.89872 23.3416 3.75042 22.9688 3.75Z" fill="white"/>
</svg>
