<svg width="30" height="30" viewBox="0 0 30 30" fill="none" xmlns="http://www.w3.org/2000/svg">
<path d="M7.5 16.875H11.25V18.75H7.5V16.875Z" fill="white"/>
<path d="M13.125 16.875H16.875V18.75H13.125V16.875Z" fill="white"/>
<path d="M7.5 13.125H11.25V15H7.5V13.125Z" fill="white"/>
<path d="M13.125 20.625H16.875V22.5H13.125V20.625Z" fill="white"/>
<path d="M18.75 13.125H22.5V15H18.75V13.125Z" fill="white"/>
<path d="M18.75 20.625H22.5V22.5H18.75V20.625Z" fill="white"/>
<path d="M25.3125 2.8125H4.6875C4.19041 2.81312 3.71386 3.01086 3.36236 3.36236C3.01086 3.71386 2.81312 4.19041 2.8125 4.6875V25.3125C2.81312 25.8096 3.01086 26.2861 3.36236 26.6376C3.71386 26.9891 4.19041 27.1869 4.6875 27.1875H25.3125C25.8096 27.1869 26.2861 26.9891 26.6376 26.6376C26.9891 26.2861 27.1869 25.8096 27.1875 25.3125V4.6875C27.1869 4.19041 26.9891 3.71386 26.6376 3.36236C26.2861 3.01086 25.8096 2.81312 25.3125 2.8125ZM25.3125 4.6875V8.4375H4.6875V4.6875H25.3125ZM4.6875 25.3125V10.3125H25.3125V25.3125H4.6875Z" fill="white"/>
</svg>
